{
  "accessors": [
    {
      "bufferView": 2,
      "componentType": 5126,
      "count": 66,
      "max": [
        0.7889229655265808,
        -0.25779157876968384,
        2.7546749114990234
      ],
      "min": [
        -0.788924515247345,
        -0.9105095863342285,
        2.1290102005004883
      ],
      "type": "VEC3"
    },
    {
      "bufferView": 2,
      "byteOffset": 792,
      "componentType": 5126,
      "count": 66,
      "max": [
        0.716525673866272,
        -0.38513654470443726,
        0.7491923570632935
      ],
      "min": [
        -0.7575088739395142,
        -0.8975452184677124,
        0.4003559350967407
      ],
      "type": "VEC3"
    },
    {
      "bufferView": 1,
      "componentType": 5126,
      "count": 66,
      "max": [
        0.849365234375,
        0.2403491735458374
      ],
      "min": [
        0.555389404296875,
        0.002024054527282715
      ],
      "type": "VEC2"
    },
    {
      "bufferView": 0,
      "componentType": 5125,
      "count": 300,
      "type": "SCALAR"
    },
    {
      "bufferView": 2,
      "byteOffset": 1584,
      "componentType": 5126,
      "count": 66,
      "max": [
        0.7889229655265808,
        -0.25779157876968384,
        2.7546749114990234
      ],
      "min": [
        -0.788924515247345,
        -0.9105095863342285,
        2.1290102005004883
      ],
      "type": "VEC3"
    },
    {
      "bufferView": 2,
      "byteOffset": 2376,
      "componentType": 5126,
      "count": 66,
      "max": [
        0.716525673866272,
        -0.38513654470443726,
        0.7491923570632935
      ],
      "min": [
        -0.7575088739395142,
        -0.8975452184677124,
        0.4003559350967407
      ],
      "type": "VEC3"
    },
    {
      "bufferView": 1,
      "byteOffset": 528,
      "componentType": 5126,
      "count": 66,
      "max": [
        0.846435546875,
        0.4961315393447876
      ],
      "min": [
        0.552459716796875,
        0.2578064203262329
      ],
      "type": "VEC2"
    },
    {
      "bufferView": 0,
      "byteOffset": 1200,
      "componentType": 5125,
      "count": 300,
      "type": "SCALAR"
    },
    {
      "bufferView": 2,
      "byteOffset": 3168,
      "componentType": 5126,
      "count": 66,
      "max": [
        0.7889229655265808,
        -0.25779157876968384,
        2.7546749114990234
      ],
      "min": [
        -0.788924515247345,
        -0.9105095863342285,
        2.1290102005004883
      ],
      "type": "VEC3"
    },
    {
      "bufferView": 2,
      "byteOffset": 3960,
      "componentType": 5126,
      "count": 66,
      "max": [
        0.716525673866272,
        -0.38513654470443726,
        0.7491923570632935
      ],
      "min": [
        -0.7575088739395142,
        -0.8975452184677124,
        0.4003559350967407
      ],
      "type": "VEC3"
    },
    {
      "bufferView": 1,
      "byteOffset": 1056,
      "componentType": 5126,
      "count": 66,
      "max": [
        0.843505859375,
        0.7480846643447876
      ],
      "min": [
        0.549530029296875,
        0.5097595453262329
      ],
      "type": "VEC2"
    },
    {
      "bufferView": 0,
      "byteOffset": 2400,
      "componentType": 5125,
      "count": 300,
      "type": "SCALAR"
    },
    {
      "bufferView": 2,
      "byteOffset": 4752,
      "componentType": 5126,
      "count": 66,
      "max": [
        0.7889229655265808,
        -0.25779157876968384,
        2.7546749114990234
      ],
      "min": [
        -0.788924515247345,
        -0.9105095863342285,
        2.1290102005004883
      ],
      "type": "VEC3"
    },
    {
      "bufferView": 2,
      "byteOffset": 5544,
      "componentType": 5126,
      "count": 66,
      "max": [
        0.716525673866272,
        -0.38513654470443726,
        0.7491923570632935
      ],
      "min": [
        -0.7575088739395142,
        -0.8975452184677124,
        0.4003559350967407
      ],
      "type": "VEC3"
    },
    {
      "bufferView": 1,
      "byteOffset": 1584,
      "componentType": 5126,
      "count": 66,
      "max": [
        0.843505859375,
        0.9980846643447876
      ],
      "min": [
        0.549530029296875,
        0.7597595453262329
      ],
      "type": "VEC2"
    },
    {
      "bufferView": 0,
      "byteOffset": 3600,
      "componentType": 5125,
      "count": 300,
      "type": "SCALAR"
    },
    {
      "bufferView": 2,
      "byteOffset": 6336,
      "componentType": 5126,
      "count": 66,
      "max": [
        0.7889229655265808,
        -0.25779157876968384,
        2.7546749114990234
      ],
      "min": [
        -0.788924515247345,
        -0.9105095863342285,
        2.1290102005004883
      ],
      "type": "VEC3"
    },
    {
      "bufferView": 2,
      "byteOffset": 7128,
      "componentType": 5126,
      "count": 66,
      "max": [
        0.716525673866272,
        -0.38513654470443726,
        0.7491923570632935
      ],
      "min": [
        -0.7575088739395142,
        -0.8975452184677124,
        0.4003559350967407
      ],
      "type": "VEC3"
    },
    {
      "bufferView": 1,
      "byteOffset": 2112,
      "componentType": 5126,
      "count": 66,
      "max": [
        0.323974609375,
        0.24808472394943237
      ],
      "min": [
        0.029998779296875,
        0.009759604930877686
      ],
      "type": "VEC2"
    },
    {
      "bufferView": 0,
      "byteOffset": 4800,
      "componentType": 5125,
      "count": 300,
      "type": "SCALAR"
    },
    {
      "bufferView": 2,
      "byteOffset": 7920,
      "componentType": 5126,
      "count": 66,
      "max": [
        0.7889229655265808,
        -0.25779157876968384,
        2.7546749114990234
      ],
      "min": [
        -0.788924515247345,
        -0.9105095863342285,
        2.1290102005004883
      ],
      "type": "VEC3"
    },
    {
      "bufferView": 2,
      "byteOffset": 8712,
      "componentType": 5126,
      "count": 66,
      "max": [
        0.716525673866272,
        -0.38513654470443726,
        0.7491923570632935
      ],
      "min": [
        -0.7575088739395142,
        -0.8975452184677124,
        0.4003559350967407
      ],
      "type": "VEC3"
    },
    {
      "bufferView": 1,
      "byteOffset": 2640,
      "componentType": 5126,
      "count": 66,
      "max": [
        0.345458984375,
        0.4844127893447876
      ],
      "min": [
        0.051483154296875,
        0.2460876703262329
      ],
      "type": "VEC2"
    },
    {
      "bufferView": 0,
      "byteOffset": 6000,
      "componentType": 5125,
      "count": 300,
      "type": "SCALAR"
    },
    {
      "bufferView": 2,
      "byteOffset": 9504,
      "componentType": 5126,
      "count": 66,
      "max": [
        0.7889229655265808,
        -0.25779157876968384,
        2.7546749114990234
      ],
      "min": [
        -0.788924515247345,
        -0.9105095863342285,
        2.1290102005004883
      ],
      "type": "VEC3"
    },
    {
      "bufferView": 2,
      "byteOffset": 10296,
      "componentType": 5126,
      "count": 66,
      "max": [
        0.716525673866272,
        -0.38513654470443726,
        0.7491923570632935
      ],
      "min": [
        -0.7575088739395142,
        -0.8975452184677124,
        0.4003559350967407
      ],
      "type": "VEC3"
    },
    {
      "bufferView": 1,
      "byteOffset": 3168,
      "componentType": 5126,
      "count": 66,
      "max": [
        0.345458984375,
        0.7463486194610596
      ],
      "min": [
        0.051483154296875,
        0.5080235004425049
      ],
      "type": "VEC2"
    },
    {
      "bufferView": 0,
      "byteOffset": 7200,
      "componentType": 5125,
      "count": 300,
      "type": "SCALAR"
    },
    {
      "bufferView": 2,
      "byteOffset": 11088,
      "componentType": 5126,
      "count": 66,
      "max": [
        0.7889229655265808,
        -0.25779157876968384,
        2.7546749114990234
      ],
      "min": [
        -0.788924515247345,
        -0.9105095863342285,
        2.1290102005004883
      ],
      "type": "VEC3"
    },
    {
      "bufferView": 2,
      "byteOffset": 11880,
      "componentType": 5126,
      "count": 66,
      "max": [
        0.716525673866272,
        -0.38513654470443726,
        0.7491923570632935
      ],
      "min": [
        -0.7575088739395142,
        -0.8975452184677124,
        0.4003559350967407
      ],
      "type": "VEC3"
    },
    {
      "bufferView": 1,
      "byteOffset": 3696,
      "componentType": 5126,
      "count": 66,
      "max": [
        0.345458984375,
        0.9974803924560547
      ],
      "min": [
        0.051483154296875,
        0.7591552734375
      ],
      "type": "VEC2"
    },
    {
      "bufferView": 0,
      "byteOffset": 8400,
      "componentType": 5125,
      "count": 300,
      "type": "SCALAR"
    },
    {
      "bufferView": 2,
      "byteOffset": 12672,
      "componentType": 5126,
      "count": 4664,
      "max": [
        2.641906261444092,
        1.358102560043335,
        4.868786811828613
      ],
      "min": [
        -2.6419060230255127,
        -1.119792103767395,
        -0.006311620585620403
      ],
      "type": "VEC3"
    },
    {
      "bufferView": 2,
      "byteOffset": 68640,
      "componentType": 5126,
      "count": 4664,
      "max": [
        0.9967278242111206,
        0.9999685287475586,
        0.9999688863754272
      ],
      "min": [
        -0.9967278838157654,
        -0.9999686479568481,
        -1.0
      ],
      "type": "VEC3"
    },
    {
      "bufferView": 1,
      "byteOffset": 4224,
      "componentType": 5126,
      "count": 4664,
      "max": [
        0.9970703125,
        0.9905776977539063
      ],
      "min": [
        0.0029296875,
        0.0029296875
      ],
      "type": "VEC2"
    },
    {
      "bufferView": 0,
      "byteOffset": 9600,
      "componentType": 5125,
      "count": 23034,
      "type": "SCALAR"
    }
  ],
  "asset": {
    "extras": {
      "author": "Spleet (https://sketchfab.com/Spleet)",
      "license": "CC-BY-4.0 (http://creativecommons.org/licenses/by/4.0/)",
      "source": "https://sketchfab.com/3d-models/palworld-mossanda-335438be58e2421887f080c4c8fbfb23",
      "title": "Palworld Mossanda"
    },
    "generator": "Sketchfab-16.12.0",
    "version": "2.0"
  },
  "bufferViews": [
    {
      "buffer": 0,
      "byteLength": 101736,
      "name": "floatBufferViews",
      "target": 34963
    },
    {
      "buffer": 0,
      "byteLength": 41536,
      "byteOffset": 101736,
      "byteStride": 8,
      "name": "floatBufferViews",
      "target": 34962
    },
    {
      "buffer": 0,
      "byteLength": 124608,
      "byteOffset": 143272,
      "byteStride": 12,
      "name": "floatBufferViews",
      "target": 34962
    }
  ],
  "buffers": [
    {
      "byteLength": 267880,
      "uri": "scene.bin"
    }
  ],
  "extensionsUsed": [
    "KHR_materials_specular"
  ],
  "images": [
    {
      "uri": "textures/7_Eye1_1_0_0.001_baseColor.png"
    },
    {
      "uri": "textures/5_body_1_0_0.001_baseColor.png"
    }
  ],
  "materials": [
    {
      "doubleSided": true,
      "name": "7_-Eye8_1_0_0.001",
      "pbrMetallicRoughness": {
        "baseColorFactor": [
          0.7754,
          0.69962,
          0.903784,
          1.0
        ],
        "metallicFactor": 0.0,
        "roughnessFactor": 0.836662
      }
    },
    {
      "doubleSided": true,
      "name": "7_-Eye7_1_0_0.001",
      "pbrMetallicRoughness": {
        "baseColorFactor": [
          0.565215,
          0.670289,
          0.814688,
          1.0
        ],
        "metallicFactor": 0.0,
        "roughnessFactor": 0.852783
      }
    },
    {
      "doubleSided": true,
      "name": "7_-Eye6_1_0_0.001",
      "pbrMetallicRoughness": {
        "baseColorFactor": [
          0.897446,
          0.787513,
          0.643845,
          1.0
        ],
        "metallicFactor": 0.0,
        "roughnessFactor": 0.821
      }
    },
    {
      "doubleSided": true,
      "name": "7_-Eye5_1_0_0.001",
      "pbrMetallicRoughness": {
        "baseColorFactor": [
          0.930177,
          0.600647,
          0.687244,
          1.0
        ],
        "metallicFactor": 0.0,
        "roughnessFactor": 0.848628
      }
    },
    {
      "doubleSided": true,
      "name": "7_-Eye4_1_0_0.001",
      "pbrMetallicRoughness": {
        "baseColorFactor": [
          0.902711,
          0.742936,
          0.733443,
          1.0
        ],
        "metallicFactor": 0.0,
        "roughnessFactor": 0.8264320000000001
      }
    },
    {
      "doubleSided": true,
      "extensions": {
        "KHR_materials_specular": {
          "specularColorFactor": [
            1.0,
            1.0,
            1.0
          ],
          "specularFactor": 1.0
        }
      },
      "name": "7_-Eye3_1_0_0.001",
      "pbrMetallicRoughness": {
        "baseColorFactor": [
          0.522199,
          0.670523,
          0.951594,
          1.0
        ],
        "metallicFactor": 0.8435771680138007
      }
    },
    {
      "doubleSided": true,
      "name": "7_-Eye2_1_0_0.001",
      "pbrMetallicRoughness": {
        "baseColorFactor": [
          0.753831,
          0.781259,
          0.664344,
          1.0
        ],
        "metallicFactor": 0.0,
        "roughnessFactor": 0.828497
      }
    },
    {
      "doubleSided": true,
      "name": "7_Eye1_1_0_0.001",
      "pbrMetallicRoughness": {
        "baseColorTexture": {
          "index": 0
        },
        "metallicFactor": 0.0,
        "roughnessFactor": 0.8094
      }
    },
    {
      "doubleSided": true,
      "extensions": {
        "KHR_materials_specular": {
          "specularColorFactor": [
            1.0,
            1.0,
            1.0
          ],
          "specularFactor": 1.0
        }
      },
      "name": "5_body_1_0_0.001",
      "pbrMetallicRoughness": {
        "baseColorTexture": {
          "index": 1
        },
        "metallicFactor": 0.5059171943672655,
        "roughnessFactor": 0.0
      }
    }
  ],
  "meshes": [
    {
      "name": "Object_0",
      "primitives": [
        {
          "attributes": {
            "NORMAL": 1,
            "POSITION": 0,
            "TEXCOORD_0": 2
          },
          "indices": 3,
          "material": 0,
          "mode": 4
        }
      ]
    },
    {
      "name": "Object_1",
      "primitives": [
        {
          "attributes": {
            "NORMAL": 5,
            "POSITION": 4,
            "TEXCOORD_0": 6
          },
          "indices": 7,
          "material": 1,
          "mode": 4
        }
      ]
    },
    {
      "name": "Object_2",
      "primitives": [
        {
          "attributes": {
            "NORMAL": 9,
            "POSITION": 8,
            "TEXCOORD_0": 10
          },
          "indices": 11,
          "material": 2,
          "mode": 4
        }
      ]
    },
    {
      "name": "Object_3",
      "primitives": [
        {
          "attributes": {
            "NORMAL": 13,
            "POSITION": 12,
            "TEXCOORD_0": 14
          },
          "indices": 15,
          "material": 3,
          "mode": 4
        }
      ]
    },
    {
      "name": "Object_4",
      "primitives": [
        {
          "attributes": {
            "NORMAL": 17,
            "POSITION": 16,
            "TEXCOORD_0": 18
          },
          "indices": 19,
          "material": 4,
          "mode": 4
        }
      ]
    },
    {
      "name": "Object_5",
      "primitives": [
        {
          "attributes": {
            "NORMAL": 21,
            "POSITION": 20,
            "TEXCOORD_0": 22
          },
          "indices": 23,
          "material": 5,
          "mode": 4
        }
      ]
    },
    {
      "name": "Object_6",
      "primitives": [
        {
          "attributes": {
            "NORMAL": 25,
            "POSITION": 24,
            "TEXCOORD_0": 26
          },
          "indices": 27,
          "material": 6,
          "mode": 4
        }
      ]
    },
    {
      "name": "Object_7",
      "primitives": [
        {
          "attributes": {
            "NORMAL": 29,
            "POSITION": 28,
            "TEXCOORD_0": 30
          },
          "indices": 31,
          "material": 7,
          "mode": 4
        }
      ]
    },
    {
      "name": "Object_8",
      "primitives": [
        {
          "attributes": {
            "NORMAL": 33,
            "POSITION": 32,
            "TEXCOORD_0": 34
          },
          "indices": 35,
          "material": 8,
          "mode": 4
        }
      ]
    }
  ],
  "nodes": [
    {
      "children": [
        1
      ],
      "matrix": [
        1.0,
        0.0,
        0.0,
        0.0,
        0.0,
        2.220446049250313e-16,
        -1.0,
        0.0,
        0.0,
        1.0,
        2.220446049250313e-16,
        0.0,
        0.0,
        0.0,
        0.0,
        1.0
      ],
      "name": "Sketchfab_model"
    },
    {
      "children": [
        2
      ],
      "name": "root"
    },
    {
      "children": [
        3
      ],
      "matrix": [
        1.0,
        0.0,
        0.0,
        0.0,
        0.0,
        2.220446049250313e-16,
        1.0,
        0.0,
        0.0,
        -1.0,
        2.220446049250313e-16,
        0.0,
        0.0,
        0.0,
        0.0,
        1.0
      ],
      "name": "GLTF_SceneRootNode"
    },
    {
      "children": [
        4
      ],
      "matrix": [
        1.0,
        0.0,
        0.0,
        0.0,
        0.0,
        2.220446049250313e-16,
        -1.0,
        0.0,
        0.0,
        1.0,
        2.220446049250313e-16,
        0.0,
        0.0,
        0.0,
        0.0,
        1.0
      ],
      "name": "Sketchfab_model_0"
    },
    {
      "children": [
        5
      ],
      "matrix": [
        0.009999999776482582,
        0.0,
        0.0,
        0.0,
        0.0,
        0.0,
        0.009999999776482582,
        0.0,
        0.0,
        -0.009999999776482582,
        0.0,
        0.0,
        0.0,
        0.0,
        0.0,
        1.0
      ],
      "name": "5fb67e101abf415594a801a756baa9f6.fbx_1"
    },
    {
      "children": [
        6,
        9,
        12,
        15,
        18,
        21,
        24,
        27,
        30
      ],
      "name": "RootNode_2"
    },
    {
      "children": [
        7
      ],
      "matrix": [
        100.0,
        0.0,
        0.0,
        0.0,
        0.0,
        -1.6292067812173627e-05,
        -100.0,
        0.0,
        0.0,
        100.0,
        -1.6292067812173627e-05,
        0.0,
        0.0,
        0.0,
        0.0,
        1.0
      ],
      "name": "7_-Eye8_1_0_0.001_3"
    },
    {
      "children": [
        8
      ],
      "name": "7_-Eye8_1_0_0.001_7_-Eye8_1_0_0.001_0_4"
    },
    {
      "mesh": 0,
      "name": "Object_8"
    },
    {
      "children": [
        10
      ],
      "matrix": [
        100.0,
        0.0,
        0.0,
        0.0,
        0.0,
        -1.6292067812173627e-05,
        -100.0,
        0.0,
        0.0,
        100.0,
        -1.6292067812173627e-05,
        0.0,
        0.0,
        0.0,
        0.0,
        1.0
      ],
      "name": "7_-Eye7_1_0_0.001_5"
    },
    {
      "children": [
        11
      ],
      "name": "7_-Eye7_1_0_0.001_7_-Eye7_1_0_0.001_0_6"
    },
    {
      "mesh": 1,
      "name": "Object_11"
    },
    {
      "children": [
        13
      ],
      "matrix": [
        100.0,
        0.0,
        0.0,
        0.0,
        0.0,
        -1.6292067812173627e-05,
        -100.0,
        0.0,
        0.0,
        100.0,
        -1.6292067812173627e-05,
        0.0,
        0.0,
        0.0,
        0.0,
        1.0
      ],
      "name": "7_-Eye6_1_0_0.001_7"
    },
    {
      "children": [
        14
      ],
      "name": "7_-Eye6_1_0_0.001_7_-Eye6_1_0_0.001_0_8"
    },
    {
      "mesh": 2,
      "name": "Object_14"
    },
    {
      "children": [
        16
      ],
      "matrix": [
        100.0,
        0.0,
        0.0,
        0.0,
        0.0,
        -1.6292067812173627e-05,
        -100.0,
        0.0,
        0.0,
        100.0,
        -1.6292067812173627e-05,
        0.0,
        0.0,
        0.0,
        0.0,
        1.0
      ],
      "name": "7_-Eye5_1_0_0.001_9"
    },
    {
      "children": [
        17
      ],
      "name": "7_-Eye5_1_0_0.001_7_-Eye5_1_0_0.001_0_10"
    },
    {
      "mesh": 3,
      "name": "Object_17"
    },
    {
      "children": [
        19
      ],
      "matrix": [
        100.0,
        0.0,
        0.0,
        0.0,
        0.0,
        -1.6292067812173627e-05,
        -100.0,
        0.0,
        0.0,
        100.0,
        -1.6292067812173627e-05,
        0.0,
        0.0,
        0.0,
        0.0,
        1.0
      ],
      "name": "7_-Eye4_1_0_0.001_11"
    },
    {
      "children": [
        20
      ],
      "name": "7_-Eye4_1_0_0.001_7_-Eye4_1_0_0.001_0_12"
    },
    {
      "mesh": 4,
      "name": "Object_20"
    },
    {
      "children": [
        22
      ],
      "matrix": [
        100.0,
        0.0,
        0.0,
        0.0,
        0.0,
        -1.6292067812173627e-05,
        -100.0,
        0.0,
        0.0,
        100.0,
        -1.6292067812173627e-05,
        0.0,
        0.0,
        0.0,
        0.0,
        1.0
      ],
      "name": "7_-Eye3_1_0_0.001_13"
    },
    {
      "children": [
        23
      ],
      "name": "7_-Eye3_1_0_0.001_7_-Eye3_1_0_0.001_0_14"
    },
    {
      "mesh": 5,
      "name": "Object_23"
    },
    {
      "children": [
        25
      ],
      "matrix": [
        100.0,
        0.0,
        0.0,
        0.0,
        0.0,
        -1.6292067812173627e-05,
        -100.0,
        0.0,
        0.0,
        100.0,
        -1.6292067812173627e-05,
        0.0,
        0.0,
        0.0,
        0.0,
        1.0
      ],
      "name": "7_-Eye2_1_0_0.001_15"
    },
    {
      "children": [
        26
      ],
      "name": "7_-Eye2_1_0_0.001_7_-Eye2_1_0_0.001_0_16"
    },
    {
      "mesh": 6,
      "name": "Object_26"
    },
    {
      "children": [
        28
      ],
      "matrix": [
        100.0,
        0.0,
        0.0,
        0.0,
        0.0,
        -1.6292067812173627e-05,
        -100.0,
        0.0,
        0.0,
        100.0,
        -1.6292067812173627e-05,
        0.0,
        0.0,
        0.0,
        0.0,
        1.0
      ],
      "name": "7_+Eye1_1_0_0.001_17"
    },
    {
      "children": [
        29
      ],
      "name": "7_+Eye1_1_0_0.001_7_+Eye1_1_0_0.001_0_18"
    },
    {
      "mesh": 7,
      "name": "Object_29"
    },
    {
      "children": [
        31
      ],
      "matrix": [
        100.0,
        0.0,
        0.0,
        0.0,
        0.0,
        -1.6292067812173627e-05,
        -100.0,
        0.0,
        0.0,
        100.0,
        -1.6292067812173627e-05,
        0.0,
        0.0,
        0.0,
        0.0,
        1.0
      ],
      "name": "5_body_1_0_0.001_19"
    },
    {
      "children": [
        32
      ],
      "name": "5_body_1_0_0.001_5_body_1_0_0.001_0_20"
    },
    {
      "mesh": 8,
      "name": "Object_32"
    }
  ],
  "samplers": [
    {
      "magFilter": 9729,
      "minFilter": 9987,
      "wrapS": 10497,
      "wrapT": 10497
    }
  ],
  "scene": 0,
  "scenes": [
    {
      "name": "Sketchfab_Scene",
      "nodes": [
        0
      ]
    }
  ],
  "textures": [
    {
      "sampler": 0,
      "source": 0
    },
    {
      "sampler": 0,
      "source": 1
    }
  ]
}
