{
  "accessors": [
    {
      "bufferView": 2,
      "componentType": 5126,
      "count": 3082,
      "max": [
        0.08404900133609772,
        1.928650975227356,
        0.24752399325370789
      ],
      "min": [
        -0.08404900133609772,
        1.6703720092773438,
        -0.06589200347661972
      ],
      "type": "VEC3"
    },
    {
      "bufferView": 2,
      "byteOffset": 36984,
      "componentType": 5126,
      "count": 3082,
      "max": [
        0.9999929070472717,
        0.9999856352806091,
        0.9984881281852722
      ],
      "min": [
        -0.9999929070472717,
        -0.9999942183494568,
        -0.9990381002426147
      ],
      "type": "VEC3"
    },
    {
      "bufferView": 3,
      "componentType": 5126,
      "count": 3082,
      "max": [
        0.9571407437324524,
        0.9895803928375244,
        0.8455101847648621,
        1.0
      ],
      "min": [
        -0.9998825788497925,
        -0.9997782111167908,
        -0.9992054104804993,
        1.0
      ],
      "type": "VEC4"
    },
    {
      "bufferView": 1,
      "componentType": 5126,
      "count": 3082,
      "max": [
        0.8194580078125,
        0.9999989867210388
      ],
      "min": [
        9.999999974752427e-07,
        9.999999974752427e-07
      ],
      "type": "VEC2"
    },
    {
      "bufferView": 0,
      "componentType": 5125,
      "count": 17532,
      "type": "SCALAR"
    },
    {
      "bufferView": 2,
      "byteOffset": 73968,
      "componentType": 5126,
      "count": 65532,
      "max": [
        1.3716909885406494,
        1.7379740476608276,
        1.0228530168533325
      ],
      "min": [
        -0.8700529932975769,
        -1.6106829643249512,
        -0.6287339925765991
      ],
      "type": "VEC3"
    },
    {
      "bufferView": 2,
      "byteOffset": 860352,
      "componentType": 5126,
      "count": 65532,
      "max": [
        0.999809980392456,
        0.9999966621398926,
        0.9999996423721313
      ],
      "min": [
        -0.9998100996017456,
        -0.999967634677887,
        -1.0
      ],
      "type": "VEC3"
    },
    {
      "bufferView": 3,
      "byteOffset": 49312,
      "componentType": 5126,
      "count": 65532,
      "max": [
        0.9999992251396179,
        0.9998842477798462,
        0.9999910593032837,
        1.0
      ],
      "min": [
        -0.9999998211860657,
        -0.9998424649238586,
        -0.9921396374702454,
        1.0
      ],
      "type": "VEC4"
    },
    {
      "bufferView": 1,
      "byteOffset": 24656,
      "componentType": 5126,
      "count": 65532,
      "max": [
        0.9999989867210388,
        0.858024001121521
      ],
      "min": [
        0.021501999348402023,
        9.999999974752427e-07
      ],
      "type": "VEC2"
    },
    {
      "bufferView": 0,
      "byteOffset": 70128,
      "componentType": 5125,
      "count": 345084,
      "type": "SCALAR"
    },
    {
      "bufferView": 2,
      "byteOffset": 1646736,
      "componentType": 5126,
      "count": 65532,
      "max": [
        1.2588720321655273,
        1.0579019784927368,
        1.0068190097808838
      ],
      "min": [
        -1.274688959121704,
        -1.2162879705429077,
        -0.6263710260391235
      ],
      "type": "VEC3"
    },
    {
      "bufferView": 2,
      "byteOffset": 2433120,
      "componentType": 5126,
      "count": 65532,
      "max": [
        0.9999932646751404,
        0.9992846250534058,
        0.9823524951934814
      ],
      "min": [
        -0.999982476234436,
        -0.9999993443489075,
        -1.0
      ],
      "type": "VEC3"
    },
    {
      "bufferView": 3,
      "byteOffset": 1097824,
      "componentType": 5126,
      "count": 65532,
      "max": [
        0.9997158646583557,
        0.9993466734886169,
        0.999981164932251,
        1.0
      ],
      "min": [
        -0.9999554753303528,
        -0.9999834895133972,
        -0.9999940991401672,
        1.0
      ],
      "type": "VEC4"
    },
    {
      "bufferView": 1,
      "byteOffset": 548912,
      "componentType": 5126,
      "count": 65532,
      "max": [
        0.9712259769439697,
        0.8212800025939941
      ],
      "min": [
        9.999999974752427e-07,
        0.005836999975144863
      ],
      "type": "VEC2"
    },
    {
      "bufferView": 0,
      "byteOffset": 1450464,
      "componentType": 5125,
      "count": 341622,
      "type": "SCALAR"
    },
    {
      "bufferView": 2,
      "byteOffset": 3219504,
      "componentType": 5126,
      "count": 65532,
      "max": [
        1.0581779479980469,
        1.7315700054168701,
        1.0228530168533325
      ],
      "min": [
        -1.3716909885406494,
        -1.6106829643249512,
        -0.6287339925765991
      ],
      "type": "VEC3"
    },
    {
      "bufferView": 2,
      "byteOffset": 4005888,
      "componentType": 5126,
      "count": 65532,
      "max": [
        0.9865036010742188,
        0.9999966621398926,
        0.9999996423721313
      ],
      "min": [
        -0.9999932646751404,
        -0.9999966621398926,
        -1.0
      ],
      "type": "VEC3"
    },
    {
      "bufferView": 3,
      "byteOffset": 2146336,
      "componentType": 5126,
      "count": 65532,
      "max": [
        0.9988602995872498,
        0.9994871616363525,
        0.9777087569236755,
        1.0
      ],
      "min": [
        -0.9999933838844299,
        -0.9999834895133972,
        -0.9999940991401672,
        1.0
      ],
      "type": "VEC4"
    },
    {
      "bufferView": 1,
      "byteOffset": 1073168,
      "componentType": 5126,
      "count": 65532,
      "max": [
        0.9793440103530884,
        0.8494030237197876
      ],
      "min": [
        0.17629699409008026,
        0.03633499890565872
      ],
      "type": "VEC2"
    },
    {
      "bufferView": 0,
      "byteOffset": 2816952,
      "componentType": 5125,
      "count": 344115,
      "type": "SCALAR"
    },
    {
      "bufferView": 2,
      "byteOffset": 4792272,
      "componentType": 5126,
      "count": 9666,
      "max": [
        1.0531580448150635,
        1.085461974143982,
        0.9218569993972778
      ],
      "min": [
        -0.0,
        -1.605450987815857,
        -0.6287029981613159
      ],
      "type": "VEC3"
    },
    {
      "bufferView": 2,
      "byteOffset": 4908264,
      "componentType": 5126,
      "count": 9666,
      "max": [
        0.9945416450500488,
        0.9975846409797668,
        0.9805826544761658
      ],
      "min": [
        -0.9569012522697449,
        -0.9953188896179199,
        -1.0
      ],
      "type": "VEC3"
    },
    {
      "bufferView": 3,
      "byteOffset": 3194848,
      "componentType": 5126,
      "count": 9666,
      "max": [
        0.9037399291992188,
        0.9972541332244873,
        0.9990960359573364,
        1.0
      ],
      "min": [
        -0.9998072385787964,
        -0.9876455664634705,
        -0.7680013179779053,
        1.0
      ],
      "type": "VEC4"
    },
    {
      "bufferView": 1,
      "byteOffset": 1597424,
      "componentType": 5126,
      "count": 9666,
      "max": [
        0.9945650100708008,
        0.850600004196167
      ],
      "min": [
        0.007753999903798103,
        0.03611699864268303
      ],
      "type": "VEC2"
    },
    {
      "bufferView": 0,
      "byteOffset": 4193412,
      "componentType": 5125,
      "count": 30903,
      "type": "SCALAR"
    },
    {
      "bufferView": 2,
      "byteOffset": 5024256,
      "componentType": 5126,
      "count": 8276,
      "max": [
        0.16433900594711304,
        0.13637800514698029,
        1.4112160205841064
      ],
      "min": [
        -0.16433900594711304,
        -0.2006780058145523,
        0.9607030153274536
      ],
      "type": "VEC3"
    },
    {
      "bufferView": 2,
      "byteOffset": 5123568,
      "componentType": 5126,
      "count": 8276,
      "max": [
        0.9999070167541504,
        0.9999439716339111,
        0.9994973540306091
      ],
      "min": [
        -0.9999070167541504,
        -0.9999648928642273,
        -0.9997852444648743
      ],
      "type": "VEC3"
    },
    {
      "bufferView": 3,
      "byteOffset": 3349504,
      "componentType": 5126,
      "count": 8276,
      "max": [
        0.999997079372406,
        0.99997478723526,
        0.9998303055763245,
        1.0
      ],
      "min": [
        -1.0,
        -0.9999714493751526,
        -0.999825656414032,
        1.0
      ],
      "type": "VEC4"
    },
    {
      "bufferView": 1,
      "byteOffset": 1674752,
      "componentType": 5126,
      "count": 8276,
      "max": [
        0.987932026386261,
        0.9999989867210388
      ],
      "min": [
        9.999999974752427e-07,
        9.999999974752427e-07
      ],
      "type": "VEC2"
    },
    {
      "bufferView": 0,
      "byteOffset": 4317024,
      "componentType": 5125,
      "count": 48810,
      "type": "SCALAR"
    }
  ],
  "asset": {
    "extras": {
      "author": "SculptCuteness (https://sketchfab.com/SculptCuteness)",
      "license": "SKETCHFAB Standard (https://sketchfab.com/licenses)",
      "source": "https://sketchfab.com/3d-models/teafant-palworld-model-3d-free-9d6d9284be5944df9a0b1a3f608c47e3",
      "title": "Teafant Palworld Model 3D FREE"
    },
    "generator": "Sketchfab-15.68.0",
    "version": "2.0"
  },
  "bufferViews": [
    {
      "buffer": 0,
      "byteLength": 4512264,
      "name": "floatBufferViews",
      "target": 34963
    },
    {
      "buffer": 0,
      "byteLength": 1740960,
      "byteOffset": 4512264,
      "byteStride": 8,
      "name": "floatBufferViews",
      "target": 34962
    },
    {
      "buffer": 0,
      "byteLength": 5222880,
      "byteOffset": 6253224,
      "byteStride": 12,
      "name": "floatBufferViews",
      "target": 34962
    },
    {
      "buffer": 0,
      "byteLength": 3481920,
      "byteOffset": 11476104,
      "byteStride": 16,
      "name": "floatBufferViews",
      "target": 34962
    }
  ],
  "buffers": [
    {
      "byteLength": 14958024,
      "uri": "scene.bin"
    }
  ],
  "extensionsUsed": [
    "KHR_materials_specular"
  ],
  "images": [
    {
      "uri": "textures/TailFluff_baseColor.png"
    },
    {
      "uri": "textures/TailFluff_metallicRoughness.png"
    },
    {
      "uri": "textures/TailFluff_normal.png"
    },
    {
      "uri": "textures/TailFluff_specularf0.png"
    },
    {
      "uri": "textures/Teafant_baseColor.png"
    },
    {
      "uri": "textures/Teafant_metallicRoughness.png"
    },
    {
      "uri": "textures/Teafant_normal.png"
    },
    {
      "uri": "textures/Teafant_specularf0.png"
    },
    {
      "uri": "textures/TopFluff_baseColor.png"
    },
    {
      "uri": "textures/TopFluff_metallicRoughness.png"
    },
    {
      "uri": "textures/TopFluff_normal.png"
    },
    {
      "uri": "textures/TopFluff_specularf0.png"
    }
  ],
  "materials": [
    {
      "doubleSided": true,
      "extensions": {
        "KHR_materials_specular": {
          "specularColorFactor": [
            1.0,
            1.0,
            1.0
          ],
          "specularFactor": 1.0,
          "specularTexture": {
            "index": 3
          }
        }
      },
      "name": "TailFluff",
      "normalTexture": {
        "index": 2
      },
      "pbrMetallicRoughness": {
        "baseColorTexture": {
          "index": 0
        },
        "metallicRoughnessTexture": {
          "index": 1
        }
      }
    },
    {
      "doubleSided": true,
      "extensions": {
        "KHR_materials_specular": {
          "specularColorFactor": [
            1.0,
            1.0,
            1.0
          ],
          "specularFactor": 1.0,
          "specularTexture": {
            "index": 7
          }
        }
      },
      "name": "Teafant",
      "normalTexture": {
        "index": 6
      },
      "pbrMetallicRoughness": {
        "baseColorTexture": {
          "index": 4
        },
        "metallicRoughnessTexture": {
          "index": 5
        }
      }
    },
    {
      "doubleSided": true,
      "extensions": {
        "KHR_materials_specular": {
          "specularColorFactor": [
            1.0,
            1.0,
            1.0
          ],
          "specularFactor": 1.0,
          "specularTexture": {
            "index": 11
          }
        }
      },
      "name": "TopFluff",
      "normalTexture": {
        "index": 10
      },
      "pbrMetallicRoughness": {
        "baseColorTexture": {
          "index": 8
        },
        "metallicRoughnessTexture": {
          "index": 9
        }
      }
    }
  ],
  "meshes": [
    {
      "name": "Object_0",
      "primitives": [
        {
          "attributes": {
            "NORMAL": 1,
            "POSITION": 0,
            "TANGENT": 2,
            "TEXCOORD_0": 3
          },
          "indices": 4,
          "material": 0,
          "mode": 4
        }
      ]
    },
    {
      "name": "Object_1",
      "primitives": [
        {
          "attributes": {
            "NORMAL": 6,
            "POSITION": 5,
            "TANGENT": 7,
            "TEXCOORD_0": 8
          },
          "indices": 9,
          "material": 1,
          "mode": 4
        }
      ]
    },
    {
      "name": "Object_2",
      "primitives": [
        {
          "attributes": {
            "NORMAL": 11,
            "POSITION": 10,
            "TANGENT": 12,
            "TEXCOORD_0": 13
          },
          "indices": 14,
          "material": 1,
          "mode": 4
        }
      ]
    },
    {
      "name": "Object_3",
      "primitives": [
        {
          "attributes": {
            "NORMAL": 16,
            "POSITION": 15,
            "TANGENT": 17,
            "TEXCOORD_0": 18
          },
          "indices": 19,
          "material": 1,
          "mode": 4
        }
      ]
    },
    {
      "name": "Object_4",
      "primitives": [
        {
          "attributes": {
            "NORMAL": 21,
            "POSITION": 20,
            "TANGENT": 22,
            "TEXCOORD_0": 23
          },
          "indices": 24,
          "material": 1,
          "mode": 4
        }
      ]
    },
    {
      "name": "Object_5",
      "primitives": [
        {
          "attributes": {
            "NORMAL": 26,
            "POSITION": 25,
            "TANGENT": 27,
            "TEXCOORD_0": 28
          },
          "indices": 29,
          "material": 2,
          "mode": 4
        }
      ]
    }
  ],
  "nodes": [
    {
      "children": [
        1
      ],
      "matrix": [
        1.0,
        0.0,
        0.0,
        0.0,
        0.0,
        2.220446049250313e-16,
        -1.0,
        0.0,
        0.0,
        1.0,
        2.220446049250313e-16,
        0.0,
        0.0,
        0.0,
        0.0,
        1.0
      ],
      "name": "Sketchfab_model"
    },
    {
      "children": [
        2,
        3,
        4,
        5,
        6,
        7
      ],
      "name": "TeafantFinalDONE.obj.cleaner.materialmerger.gles"
    },
    {
      "mesh": 0,
      "name": "Object_2"
    },
    {
      "mesh": 1,
      "name": "Object_3"
    },
    {
      "mesh": 2,
      "name": "Object_4"
    },
    {
      "mesh": 3,
      "name": "Object_5"
    },
    {
      "mesh": 4,
      "name": "Object_6"
    },
    {
      "mesh": 5,
      "name": "Object_7"
    }
  ],
  "samplers": [
    {
      "magFilter": 9729,
      "minFilter": 9987,
      "wrapS": 10497,
      "wrapT": 10497
    }
  ],
  "scene": 0,
  "scenes": [
    {
      "name": "Sketchfab_Scene",
      "nodes": [
        0
      ]
    }
  ],
  "textures": [
    {
      "sampler": 0,
      "source": 0
    },
    {
      "sampler": 0,
      "source": 1
    },
    {
      "sampler": 0,
      "source": 2
    },
    {
      "sampler": 0,
      "source": 3
    },
    {
      "sampler": 0,
      "source": 4
    },
    {
      "sampler": 0,
      "source": 5
    },
    {
      "sampler": 0,
      "source": 6
    },
    {
      "sampler": 0,
      "source": 7
    },
    {
      "sampler": 0,
      "source": 8
    },
    {
      "sampler": 0,
      "source": 9
    },
    {
      "sampler": 0,
      "source": 10
    },
    {
      "sampler": 0,
      "source": 11
    }
  ]
}
